Coordinates
version=1
nRows=8
nColumns=40
inDegrees=yes

Units are S.I. units (second, meters, Newtons, ...)
Angles are in degrees.

endheader
time	pelvis_tilt	pelvis_list	pelvis_rotation	pelvis_tx	pelvis_ty	pelvis_tz	hip_flexion_r	hip_adduction_r	hip_rotation_r	knee_angle_r	knee_angle_r_beta	ankle_angle_r	subtalar_angle_r	mtp_angle_r	hip_flexion_l	hip_adduction_l	hip_rotation_l	knee_angle_l	knee_angle_l_beta	ankle_angle_l	subtalar_angle_l	mtp_angle_l	lumbar_extension	lumbar_bending	lumbar_rotation	arm_flex_r	arm_add_r	arm_rot_r	elbow_flex_r	pro_sup_r	wrist_flex_r	wrist_dev_r	arm_flex_l	arm_add_l	arm_rot_l	elbow_flex_l	pro_sup_l	wrist_flex_l	wrist_dev_l
      0.82000000	     -5.43458360	      0.39755539	     11.38196956	     -0.36577782	      0.93083554	      1.54603023	     31.32986325	    -11.45451098	    -26.51610675	    -11.51196305	     -0.20092166	      1.93808942	      7.84214149	      7.50503224	     -6.04716886	     -1.85130855	     10.34140376	    -11.95835689	     -0.20871270	      8.75836151	     -3.26683779	    -15.69128437	     -1.52331309	      0.69057099	    -14.15109346	     -9.03805799	    -11.24881778	    -27.09061342	     18.46948976	     89.95437384	      0.00000000	      0.00000000	     16.46198940	     15.70374274	     -2.37844745	     50.67883298	     89.95437384	      0.00000000	      0.00000000
      0.83000000	     -5.55952123	      0.48852428	     11.57162495	     -0.35239295	      0.92881867	      1.54651527	     31.74867968	    -11.57527979	    -26.29631902	    -11.48031961	     -0.20036938	      1.89662483	      7.75256133	      7.33651012	     -6.56165572	     -1.68041332	     10.18481524	    -12.45861610	     -0.21744387	      8.72154260	     -3.19940627	    -15.52373183	     -1.29304230	      0.55571698	    -14.16149593	     -9.74622034	    -11.33687561	    -27.07894032	     18.26252353	     89.95437384	      0.00000000	      0.00000000	     17.00879309	     15.85491046	     -2.12322188	     52.04798756	     89.95437384	      0.00000000	      0.00000000
      0.84000000	     -5.36993294	      0.44527076	     11.97483817	     -0.33840820	      0.92726233	      1.54729770	     31.71706595	    -11.58342732	    -25.65929875	    -11.96963903	     -0.20890961	      1.95085838	      7.61714211	      7.00397274	     -7.29344194	     -1.17295696	      9.85523123	    -13.17314266	     -0.22991471	      8.87771032	     -3.20945574	    -15.41647111	     -1.36714967	      0.56195447	    -14.73434554	    -10.09741897	    -11.32472988	    -27.34312367	     17.96695413	     89.95437384	      0.00000000	      0.00000000	     16.91267239	     16.33369524	     -1.46143772	     54.20281688	     89.95437384	      0.00000000	      0.00000000
      0.85000000	     -5.12520387	      0.34727353	     12.34906050	     -0.32387703	      0.92586366	      1.54798165	     31.61258674	    -11.52132371	    -24.91145637	    -12.98505808	     -0.22663202	      2.02951562	      7.03287304	      6.67309137	     -8.04910259	     -0.60569822	      9.51977693	    -13.98947335	     -0.24416237	      8.74794700	     -3.10864548	    -15.14949644	     -1.39670531	      0.66292123	    -15.02855301	    -10.68009333	    -11.36863598	    -27.47488448	     17.75475241	     89.95437384	      0.00000000	      0.00000000	     17.02246420	     16.48679057	     -0.85423737	     55.76497665	     89.95437384	      0.00000000	      0.00000000
      0.86000000	     -4.38438099	      0.13750264	     12.77792143	     -0.30807517	      0.92543893	      1.54880937	     30.76396988	    -11.19491581	    -24.39472117	    -14.25133364	     -0.24873269	      2.45543138	      5.56940964	      6.17508322	     -9.46633520	      0.27877974	      9.41160380	    -14.59650648	     -0.25475710	      8.57574803	     -3.20716937	    -15.12261189	     -1.83451737	      0.98222324	    -15.54979440	    -10.86318714	    -11.42616095	    -28.04322534	     16.96900916	     89.95437384	      0.00000000	      0.00000000	     16.73422164	     16.65358891	      0.10853529	     57.53000041	     89.95437384	      0.00000000	      0.00000000
      0.87000000	     -3.53972283	     -0.26067020	     13.08795081	     -0.29204837	      0.92521618	      1.55015575	     29.66959072	    -10.39381175	    -23.27437709	    -15.32021733	     -0.26738823	      2.36395010	      3.51641318	      5.69531578	    -10.87800368	      1.45042588	      9.54406569	    -15.29504454	     -0.26694889	      7.89896373	     -3.50610072	    -15.15201717	     -2.32784697	      1.52442033	    -15.70801806	    -11.29690015	    -11.43847654	    -28.63962718	     16.53644402	     89.95437384	      0.00000000	      0.00000000	     16.54582916	     16.72808871	      0.81859837	     58.99170574	     89.95437384	      0.00000000	      0.00000000
      0.88000000	     -3.33450358	     -0.42712548	     13.26733422	     -0.27618733	      0.92407860	      1.55152491	     29.43664808	    -10.07204130	    -22.16133252	    -16.94505551	     -0.29574701	      1.84677198	      2.89177085	      5.47770378	    -11.47512810	      2.14050376	      9.37401626	    -16.35809251	     -0.28550257	      7.36466698	     -3.18430262	    -14.66995929	     -2.12262702	      1.65399037	    -15.68641134	    -12.10495537	    -11.45630673	    -28.59532926	     16.58994305	     89.95437384	      0.00000000	      0.00000000	     16.30608592	     16.81117456	      1.22060389	     60.17436087	     89.95437384	      0.00000000	      0.00000000
      0.89000000	     -2.25598485	     -1.28588624	     13.21681940	     -0.25913191	      0.92436097	      1.55407036	     27.94006596	     -8.29723210	    -21.39123483	    -17.31114114	     -0.30213641	     -1.23905593	     -1.38992124	      5.12998747	    -12.90780531	      4.07909091	     10.87928244	    -17.44001874	     -0.30438575	      6.18266425	     -4.89722084	    -15.61357640	     -2.66261481	      2.70287050	    -15.55325629	    -12.25142811	    -11.51940857	    -29.54984144	     15.85063354	     89.95437384	      0.00000000	      0.00000000	     15.65212206	     16.85987951	      2.09090492	     61.65461874	     89.95437384	      0.00000000	      0.00000000
